<?xml version="1.0" encoding="UTF-8"?>
<svg xmlns="http://www.w3.org/2000/svg" xmlns:xlink="http://www.w3.org/1999/xlink" width="202px" height="44px" viewBox="0 0 202 44" version="1.1">
<g id="surface1">
<path style=" stroke:none;fill-rule:nonzero;fill:rgb(70.588235%,87.058824%,30.196078%);fill-opacity:1;" d="M 162.003906 19.546875 C 163.53125 23.023438 162.730469 27.089844 159.988281 29.707031 C 157.253906 32.320312 153.1875 32.910156 149.832031 31.175781 C 146.480469 29.441406 144.570312 25.769531 145.078125 21.992188 C 151.847656 21.660156 149.785156 16.984375 153.226562 11.460938 C 153.226562 11.460938 139.855469 12.402344 143.78125 21.714844 C 143.78125 21.714844 144.621094 15.648438 149.417969 14.25 C 146.914062 15.730469 145.125 18.195312 144.488281 21.058594 C 143.207031 25.175781 144.832031 29.648438 148.4375 31.964844 C 152.042969 34.289062 156.746094 33.878906 159.90625 30.976562 C 163.070312 28.074219 163.921875 23.390625 161.96875 19.546875 Z M 162.003906 19.546875 "/>
<path style=" stroke:none;fill-rule:nonzero;fill:rgb(86.666667%,18.431373%,43.137255%);fill-opacity:1;" d="M 154.113281 11.460938 C 153.765625 12.023438 153.460938 12.609375 153.1875 13.214844 C 156.003906 12.988281 158.785156 13.984375 160.824219 15.960938 C 162.875 17.9375 163.980469 20.703125 163.894531 23.566406 C 163.878906 29.230469 159.453125 33.871094 153.859375 34.089844 C 160.03125 34.160156 165.089844 29.148438 165.160156 22.898438 C 165.234375 16.65625 160.28125 11.53125 154.113281 11.460938 Z M 154.113281 11.460938 "/>
<path style=" stroke:none;fill-rule:nonzero;fill:rgb(90.588235%,11.372549%,41.960784%);fill-opacity:1;" d="M 161.785156 25.167969 C 161.769531 24.707031 161.398438 24.335938 160.929688 24.332031 L 159.988281 24.332031 L 159.988281 22.28125 C 159.988281 21.945312 159.785156 21.691406 159.535156 21.691406 C 159.269531 21.691406 159.097656 21.945312 159.097656 22.28125 L 159.097656 24.359375 L 157.273438 24.359375 L 157.273438 22.28125 C 157.273438 21.972656 157.070312 21.691406 156.820312 21.691406 C 156.5625 21.691406 156.390625 21.972656 156.390625 22.308594 L 156.390625 24.359375 L 155.445312 24.359375 C 154.976562 24.359375 154.589844 24.734375 154.589844 25.195312 C 154.609375 25.667969 154.996094 26.042969 155.472656 26.042969 L 155.617188 26.042969 C 155.875 28.421875 158.472656 29.546875 156.792969 30.078125 C 154.425781 30.777344 151.855469 30.265625 149.957031 28.714844 C 148.050781 27.167969 147.070312 24.78125 147.34375 22.359375 L 146.140625 22.730469 C 145.976562 25.613281 147.4375 28.339844 149.949219 29.84375 C 152.453125 31.34375 155.59375 31.371094 158.132812 29.90625 C 159.519531 29.121094 160.453125 27.738281 160.667969 26.179688 L 160.839844 26.179688 C 161.070312 26.183594 161.296875 26.101562 161.457031 25.941406 C 161.613281 25.777344 161.710938 25.566406 161.703125 25.339844 Z M 161.785156 25.167969 "/>
<path style=" stroke:none;fill-rule:nonzero;fill:rgb(65.882353%,65.882353%,65.882353%);fill-opacity:1;" d="M 0.660156 22.804688 L 0.660156 20.636719 C 0.539062 18.679688 1.191406 16.757812 2.496094 15.28125 C 3.816406 13.9375 5.667969 13.226562 7.5625 13.332031 C 9.480469 13.25 11.359375 13.957031 12.742188 15.28125 C 13.734375 16.398438 14.222656 17.863281 14.109375 19.347656 L 10.84375 19.347656 C 10.84375 17.390625 9.789062 16.402344 7.671875 16.402344 C 7.109375 16.410156 6.542969 16.5625 6.0625 16.847656 C 5.667969 17.046875 5.328125 17.332031 5.054688 17.664062 C 4.824219 18.09375 4.652344 18.558594 4.550781 19.042969 C 4.460938 19.554688 4.394531 20.0625 4.359375 20.574219 C 4.359375 20.992188 4.359375 21.542969 4.359375 22.257812 C 4.359375 22.96875 4.359375 23.402344 4.359375 23.628906 C 4.359375 23.847656 4.359375 24.257812 4.359375 24.808594 C 4.378906 25.195312 4.457031 25.59375 4.585938 25.960938 C 4.585938 26.179688 4.800781 26.484375 4.972656 26.839844 C 5.109375 27.160156 5.339844 27.425781 5.644531 27.609375 C 6.347656 28.03125 7.15625 28.25 7.980469 28.238281 C 9.285156 28.332031 10.507812 27.609375 11.039062 26.429688 L 11.039062 25.085938 L 9.007812 25.085938 L 9.007812 22.332031 L 14.074219 22.332031 L 14.074219 27.609375 C 13.605469 28.773438 12.734375 29.742188 11.625 30.355469 C 10.453125 30.96875 9.140625 31.28125 7.816406 31.261719 C 5.726562 31.488281 3.652344 30.710938 2.246094 29.171875 C 1 27.289062 0.441406 25.039062 0.660156 22.804688 Z M 35.914062 31.296875 L 31.882812 31.296875 L 28.316406 24.761719 L 25.816406 24.761719 L 25.816406 31.296875 L 22.421875 31.296875 L 22.421875 17.5 C 22.351562 16.5 22.679688 15.503906 23.339844 14.742188 C 24.1875 13.976562 25.304688 13.574219 26.453125 13.636719 L 29.40625 13.636719 C 30.945312 13.574219 32.441406 14.148438 33.535156 15.21875 C 34.628906 16.289062 35.234375 17.765625 35.195312 19.292969 C 35.242188 20.4375 34.910156 21.578125 34.25 22.519531 C 33.679688 23.335938 32.875 23.964844 31.9375 24.316406 Z M 31.101562 21.113281 C 31.5625 20.597656 31.8125 19.929688 31.792969 19.238281 C 31.828125 18.558594 31.574219 17.890625 31.101562 17.390625 C 30.601562 16.929688 29.949219 16.683594 29.261719 16.699219 L 27.425781 16.699219 C 26.398438 16.699219 25.894531 17.222656 25.894531 18.273438 L 25.894531 21.890625 L 29.183594 21.890625 C 29.910156 21.933594 30.609375 21.644531 31.101562 21.113281 Z M 55.875 31.269531 L 49.445312 31.269531 C 47.941406 31.414062 46.425781 31.050781 45.148438 30.246094 C 44.222656 29.265625 43.78125 27.9375 43.929688 26.609375 L 43.929688 13.628906 L 55.875 13.628906 L 55.875 16.691406 L 47.378906 16.691406 L 47.378906 20.847656 L 53.269531 20.847656 L 53.015625 23.910156 L 47.355469 23.910156 L 47.355469 26.363281 C 47.296875 26.894531 47.472656 27.425781 47.839844 27.828125 C 48.363281 28.132812 48.976562 28.269531 49.589844 28.210938 L 55.757812 28.210938 Z M 75.6875 31.269531 L 69.34375 31.269531 C 67.847656 31.414062 66.347656 31.050781 65.085938 30.246094 C 64.164062 29.265625 63.730469 27.9375 63.886719 26.609375 L 63.886719 13.628906 L 75.6875 13.628906 L 75.6875 16.691406 L 67.519531 16.691406 L 67.519531 20.847656 L 73.117188 20.847656 L 72.859375 23.910156 L 67.519531 23.910156 L 67.519531 26.363281 C 67.464844 26.894531 67.636719 27.425781 67.996094 27.828125 C 68.519531 28.132812 69.125 28.269531 69.730469 28.210938 L 75.824219 28.210938 Z M 98.238281 14.25 L 98.238281 30.234375 C 98.246094 30.75 98.0625 31.25 97.722656 31.644531 C 97.441406 32.011719 97 32.222656 96.53125 32.230469 C 95.273438 32.136719 94.183594 31.363281 93.695312 30.234375 L 87.363281 20.601562 L 87.363281 32.003906 L 83.8125 32.003906 L 83.8125 14.25 L 87.21875 14.25 L 94.6875 25.960938 L 94.6875 14.25 Z M 118.488281 25.917969 C 118.550781 27.453125 117.847656 28.917969 116.609375 29.859375 C 115.238281 30.859375 113.558594 31.371094 111.851562 31.289062 C 110.285156 31.28125 108.761719 30.855469 107.429688 30.050781 C 106.699219 29.59375 106.09375 28.972656 105.667969 28.238281 C 105.195312 27.382812 104.972656 26.4375 104.992188 25.476562 L 108.183594 25.339844 C 108.15625 26.183594 108.589844 26.976562 109.332031 27.40625 C 110.09375 27.902344 110.992188 28.160156 111.902344 28.15625 C 114.007812 28.15625 115.039062 27.433594 115.039062 25.972656 C 115.039062 24.515625 114.347656 24.070312 112.910156 23.882812 L 110.113281 23.582031 C 108.816406 23.453125 107.578125 22.925781 106.589844 22.089844 C 105.6875 21.148438 105.21875 19.878906 105.300781 18.59375 C 105.277344 17.121094 105.964844 15.722656 107.148438 14.816406 C 108.449219 13.8125 110.0625 13.28125 111.707031 13.332031 C 113.347656 13.25 114.953125 13.753906 116.242188 14.734375 C 117.347656 15.613281 117.976562 16.941406 117.957031 18.339844 L 114.820312 18.503906 C 114.617188 17.167969 113.394531 16.214844 112.019531 16.328125 C 111.164062 16.28125 110.320312 16.511719 109.613281 16.992188 C 109.082031 17.316406 108.753906 17.890625 108.742188 18.503906 C 108.71875 19.035156 108.945312 19.546875 109.359375 19.886719 C 109.800781 20.25 110.347656 20.472656 110.929688 20.519531 L 113.726562 20.820312 C 115.058594 20.839844 116.320312 21.398438 117.222656 22.359375 C 118.121094 23.328125 118.578125 24.609375 118.488281 25.917969 Z M 135.472656 24.289062 L 138.746094 24.289062 C 138.875 26.164062 138.257812 28.023438 137.023438 29.46875 C 135.746094 30.738281 133.96875 31.398438 132.15625 31.28125 C 127.5625 31.28125 125.25 28.53125 125.25 23.328125 L 125.25 21.835938 C 125.25 17.652344 126.433594 15.035156 128.800781 13.984375 C 129.847656 13.519531 130.996094 13.296875 132.15625 13.324219 C 133.867188 13.25 135.546875 13.8125 136.855469 14.898438 C 138.132812 16.035156 138.808594 17.679688 138.683594 19.355469 L 135.390625 19.355469 C 135.269531 18.550781 134.917969 17.789062 134.371094 17.152344 C 133.78125 16.601562 132.96875 16.328125 132.15625 16.417969 C 131.15625 16.335938 130.175781 16.738281 129.535156 17.488281 C 129.019531 18.3125 128.765625 19.273438 128.828125 20.242188 C 128.792969 20.773438 128.792969 21.304688 128.828125 21.835938 L 128.828125 23.382812 C 128.699219 24.734375 128.972656 26.097656 129.617188 27.289062 C 130.277344 28.019531 131.25 28.394531 132.234375 28.3125 C 133.148438 28.40625 134.050781 28.058594 134.65625 27.378906 C 135.1875 26.429688 135.46875 25.367188 135.472656 24.289062 Z M 183.886719 32.230469 L 179.886719 32.230469 L 176.390625 25.566406 L 173.886719 25.566406 L 173.886719 32.230469 L 170.410156 32.230469 L 170.410156 18.230469 C 170.265625 17.140625 170.582031 16.050781 171.273438 15.203125 C 172.164062 14.480469 173.308594 14.140625 174.445312 14.285156 L 177.390625 14.285156 C 178.925781 14.214844 180.417969 14.796875 181.511719 15.886719 C 182.605469 16.976562 183.207031 18.46875 183.164062 20.015625 C 183.238281 21.132812 182.96875 22.238281 182.390625 23.179688 C 181.816406 24.023438 181 24.652344 180.054688 25.003906 Z M 178.996094 21.871094 C 179.429688 21.332031 179.648438 20.652344 179.605469 19.96875 C 179.648438 19.273438 179.394531 18.605469 178.914062 18.113281 C 178.4375 17.625 177.769531 17.359375 177.082031 17.390625 L 175.445312 17.390625 C 175.007812 17.332031 174.574219 17.480469 174.265625 17.792969 C 173.960938 18.109375 173.824219 18.550781 173.886719 18.988281 L 173.886719 22.65625 L 177.164062 22.65625 C 177.859375 22.675781 178.53125 22.386719 178.996094 21.871094 Z M 201.082031 31.269531 L 194.679688 31.269531 C 193.171875 31.414062 191.652344 31.050781 190.375 30.246094 C 189.441406 29.265625 188.988281 27.941406 189.128906 26.609375 L 189.128906 13.628906 L 201.082031 13.628906 L 201.082031 16.691406 L 192.585938 16.691406 L 192.585938 20.847656 L 198.558594 20.847656 L 198.304688 23.910156 L 192.640625 23.910156 L 192.640625 26.363281 C 192.578125 26.902344 192.761719 27.4375 193.148438 27.820312 C 193.679688 28.132812 194.292969 28.269531 194.90625 28.210938 L 201.046875 28.210938 Z M 201.082031 31.269531 "/>
</g>
</svg>
